<?xml version="1.0" encoding="utf-8"?>
<!-- Generator: Adobe Illustrator 22.0.1, SVG Export Plug-In . SVG Version: 6.00 Build 0)  -->
<svg version="1.1" id="Layer_1" xmlns="http://www.w3.org/2000/svg" xmlns:xlink="http://www.w3.org/1999/xlink" x="0px" y="0px"
	 viewBox="0 0 300 200" style="enable-background:new 0 0 300 200;" xml:space="preserve">
<path d="M135.2,72.1l-38.9,56.9H77l28.8-43c0,0-4,0-5.2,0c-12.7,0-14.9,6.4-20.2,14.3c-4.6,6.6-18.2,28.8-18.2,28.8s-38.6,0-51.3,0
	c-5.4,0-8.2-6.4-4.3-12.8c6-10,17.7-29,24.7-37.7c3-3.7,4.9-6.4,18.1-6.4c12,0,26.8,0,26.8,0L65.4,85.9c0,0-10.6,0-14.3,0
	c-2.2,0-6.3-0.7-10.7,5.8c-5.2,7.6-15,24-15,24h25.8l19.6-30.1c0,0,8.2-13.5,24-13.5C109.5,72.1,135.2,72.1,135.2,72.1z"/>
<path d="M100.6,128.9l9-13.3c0,0,4,0,5.4,0c7.8,0,9.2-3.7,12.7-8.4c7.4-9.8,15.6-22,19.1-27.5c0.7-1,4.7-7.7,13.5-7.7
	c7.1,0,61,0,61,0l-9.4,13.9h-11.6l-29.4,43h-20.4l29.1-43H172c-6.3,0-8.6-1.2-13.3,5.9c-5.2,7.8-14.1,21.4-19.2,28.3
	c-2.8,3.8-6.8,8.8-16.5,8.8C113.6,128.9,100.6,128.9,100.6,128.9z"/>
<polygon points="225.9,72.1 188,128.9 208.4,128.9 237.5,85.8 253.1,85.8 224.9,128.9 245.2,128.9 272.5,85.9 287.5,85.9 297,72.1 
	"/>
</svg>
