<svg width="580" height="400" xmlns="http://www.w3.org/2000/svg">
 <!-- Created with Method Draw - http://github.com/duopixel/Method-Draw/ -->

 <g>
  <title>background</title>
  <rect fill="#fff" id="canvas_background" height="402" width="582" y="-1" x="-1"/>
 </g>
 <g>
  <title>Layer 1</title>
  <g id="svg_8">
   <path fill="#ffffff" id="svg_5" d="m258.356873,0.209017l-77.05925,118.959715l-38.232391,0l57.051544,-89.899235c0,0 -7.92395,0 -10.301056,0c-25.158142,0 -29.516281,13.380325 -40.015244,29.89669c-9.112503,13.798504 -36.05349,60.211567 -36.05349,60.211567s-76.464897,0 -101.62305,0c-10.697149,0 -16.243838,-13.380333 -8.518082,-26.760651c11.885705,-20.906799 35.062904,-60.62974 48.929634,-78.818675c5.942848,-7.735498 9.706638,-13.380323 35.855297,-13.380323c23.771484,0 53.089653,0 53.089653,0l-21.394371,28.642302c0,0 -20.998131,0 -28.32766,0c-4.358131,0 -12.480057,-1.463406 -21.196251,12.126005c-10.300983,15.889099 -29.714329,50.176304 -29.714329,50.176304l51.1087,0l38.826767,-62.929504c0,0 16.243835,-28.224195 47.542953,-28.224195c29.120041,0 80.030624,0 80.030624,0z"/>
   <path fill="#ffffff" id="svg_6" d="m189.81572,118.959641l17.828629,-27.806091c0,0 7.923798,0 10.697144,0c15.451523,0 18.224869,-7.735497 25.158157,-17.561668c14.659042,-20.488625 30.902878,-45.994951 37.836319,-57.49369c1.386597,-2.090673 9.310547,-16.09819 26.74295,-16.09819c14.064758,0 120.838348,0 120.838348,0l-18.621094,29.060408l-22.979095,0l-58.240112,89.899233l-40.411469,0l57.645813,-89.899233l-15.055298,0c-12.47995,0 -17.036133,-2.50878 -26.34668,12.335024c-10.301086,16.307278 -27.931519,44.740562 -38.034363,59.166183c-5.546692,7.944588 -13.470505,18.398026 -32.685883,18.398026c-18.620941,0 -44.373367,0 -44.373367,0z"/>
   <polygon fill="#ffffff" id="svg_7" points="438.0296325683594,0.20901707219458032 362.9513854980469,118.95964144719801 403.3628845214844,118.95964144719801 461.0086975097656,28.85138973622543 491.9115905761719,28.85138973622543 436.048583984375,118.95964144719801 476.26202392578125,118.95964144719801 530.3422241210938,29.060408122256376 560.0565185546875,29.060408122256376 578.87548828125,0.20901707219458032 "/>
  </g>
 </g>
</svg>