<svg width="582" height="402" xmlns="http://www.w3.org/2000/svg">
 <!-- Created with Method Draw - http://github.com/duopixel/Method-Draw/ -->

 <g>
  <title>background</title>
  <rect fill="#ffffff" id="canvas_background" height="404" width="584" y="-1" x="-1"/>
  <g display="none" overflow="visible" y="0" x="0" height="100%" width="100%" id="canvasGrid">
   <rect fill="url(#gridpattern)" stroke-width="0" y="0" x="0" height="100%" width="100%"/>
  </g>
 </g>
 <g>
  <title>Layer 1</title>
  <g id="svg_8">
   <path id="svg_5" d="m259.803131,1.544675l-77.192352,132.910708l-38.298431,0l57.150146,-100.442154c0,0 -7.937531,0 -10.318878,0c-25.20166,0 -29.567245,14.949497 -40.084381,33.402794c-9.128113,15.416725 -36.115791,67.27285 -36.115791,67.27285s-76.596928,0 -101.798557,0c-10.715604,0 -16.271864,-14.949486 -8.532846,-29.898979c11.906251,-23.358643 35.123502,-67.740055 49.014196,-88.062138c5.953144,-8.642632 9.723396,-14.949494 35.917259,-14.949494c23.812546,0 53.181328,0 53.181328,0l-21.431335,32.001328c0,0 -21.034386,0 -28.376587,0c-4.365646,0 -12.50164,-1.635105 -21.232796,13.547989c-10.318851,17.752567 -29.765675,56.060757 -29.765675,56.060757l51.196918,0l38.893776,-70.309479c0,0 16.272003,-31.534182 47.625137,-31.534182c29.170364,0 80.168869,0 80.168869,0z"/>
   <path id="svg_6" d="m191.143616,134.221756l17.859329,-31.06707c0,0 7.937592,0 10.715698,0c15.478241,0 18.256409,-8.642677 25.20166,-19.621201c14.684525,-22.891403 30.956253,-51.389 37.901657,-64.236258c1.388947,-2.335875 9.32666,-17.986098 26.789124,-17.986098c14.089081,0 121.04715,0 121.04715,0l-18.653381,32.468461l-23.018738,0l-58.340698,100.442165l-40.481262,0l57.745392,-100.442165l-15.081299,0c-12.501526,0 -17.065552,-2.803009 -26.392242,13.781631c-10.318878,18.2197 -27.979706,49.987453 -38.100037,66.104855c-5.556274,8.876328 -13.493729,20.555679 -32.742264,20.555679c-18.653168,0 -44.450089,0 -44.450089,0z"/>
   <polygon id="svg_7" points="439.78631591796875,1.5446752309799194 364.5783996582031,134.2217559814453 405.05963134765625,134.2217559814453 462.80511474609375,33.54605484008789 493.7613220214844,33.54605484008789 437.80181884765625,134.2217559814453 478.0847473144531,134.2217559814453 532.2583618164062,33.77959060668945 562.0238647460938,33.77959060668945 580.8755493164062,1.5446752309799194 "/>
  </g>
 </g>
</svg>