<svg width="582" height="402" xmlns="http://www.w3.org/2000/svg">
 <!-- Created with Method Draw - http://github.com/duopixel/Method-Draw/ -->

 <g>
  <title>background</title>
  <rect fill="#ffffff" id="canvas_background" height="404" width="584" y="-1" x="-1"/>
  <g display="none" overflow="visible" y="0" x="0" height="100%" width="100%" id="canvasGrid">
   <rect fill="url(#gridpattern)" stroke-width="0" y="0" x="0" height="100%" width="100%"/>
  </g>
 </g>
 <g>
  <title>Layer 1</title>
  <g id="svg_8">
   <path id="svg_5" d="m260.356812,1.681254l-77.059235,210.637578l-38.232376,0l57.05159,-159.181248c0,0 -7.923843,0 -10.301086,0c-25.158203,0 -29.516266,23.692043 -40.015259,52.936916c-9.112366,24.432503 -36.053513,106.614372 -36.053513,106.614372s-76.464836,0 -101.623004,0c-10.697126,0 -16.243804,-23.692032 -8.518132,-47.384064c11.885719,-37.018906 35.062931,-107.354794 48.929672,-139.561329c5.942875,-13.696889 9.706627,-23.692036 35.855316,-23.692036c23.771484,0 53.089622,0 53.089622,0l-21.394379,50.71587c0,0 -20.998116,0 -28.327652,0c-4.358116,0 -12.48008,-2.59132 -21.196182,21.470921c-10.301052,28.134354 -29.714344,88.845367 -29.714344,88.845367l51.108631,0l38.826706,-111.426811c0,0 16.243942,-49.975538 47.543015,-49.975538c29.120056,0 80.030609,0 80.030609,0z"/>
   <path id="svg_6" d="m191.815704,211.948563l17.828522,-49.235245c0,0 7.923904,0 10.69722,0c15.451553,0 18.22493,-13.69696 25.158203,-31.095779c14.659195,-36.278412 30.902878,-81.441544 37.836288,-101.801947c1.386566,-3.701906 9.310577,-28.504462 26.74295,-28.504462c14.064758,0 120.838379,0 120.838379,0l-18.621185,51.456185l-22.979065,0l-58.240082,159.181248l-40.411469,0l57.645813,-159.181248l-15.055267,0c-12.47998,0 -17.036133,-4.442223 -26.346741,21.841198c-10.301086,28.874672 -27.931458,79.22036 -38.034332,104.763313c-5.546692,14.067245 -13.470459,32.576736 -32.685806,32.576736c-18.621002,0 -44.373428,0 -44.373428,0z"/>
   <polygon id="svg_7" points="440.0296325683594,1.6812540292739868 364.9513854980469,211.9485626220703 405.3628234863281,211.9485626220703 463.00872802734375,52.3972053527832 493.91156005859375,52.3972053527832 438.0485534667969,211.9485626220703 478.2619934082031,211.9485626220703 532.3422241210938,52.76731491088867 562.056396484375,52.76731491088867 580.8755493164062,1.6812540292739868 "/>
  </g>
 </g>
</svg>