<svg width="582" height="402" xmlns="http://www.w3.org/2000/svg">
 <!-- Created with Method Draw - http://github.com/duopixel/Method-Draw/ -->

 <g>
  <title>background</title>
  <rect fill="#ffffff" id="canvas_background" height="404" width="584" y="-1" x="-1"/>
  <g display="none" overflow="visible" y="0" x="0" height="100%" width="100%" id="canvasGrid">
   <rect fill="url(#gridpattern)" stroke-width="0" y="0" x="0" height="100%" width="100%"/>
  </g>
 </g>
 <g>
  <title>Layer 1</title>
  <g id="svg_8">
   <path id="svg_5" d="m259.803131,151.483383l-77.192352,98.033279l-38.298431,0l57.150146,-74.084885c0,0 -7.937531,0 -10.318878,0c-25.20166,0 -29.567245,11.026566 -40.084381,24.637482c-9.128113,11.371185 -36.115791,49.619614 -36.115791,49.619614s-76.596928,0 -101.798557,0c-10.715604,0 -16.271864,-11.026566 -8.532846,-22.053116c11.906251,-17.229034 35.123502,-49.964218 49.014196,-64.953522c5.953144,-6.374695 9.723396,-11.026566 35.917259,-11.026566c23.812546,0 53.181328,0 53.181328,0l-21.431335,23.603775c0,0 -21.034386,0 -28.376587,0c-4.365646,0 -12.50164,-1.206024 -21.232796,9.992828c-10.318851,13.09407 -29.765675,41.349716 -29.765675,41.349716l51.196918,0l38.893776,-51.85939c0,0 16.272003,-23.259216 47.625137,-23.259216c29.170364,0 80.168869,0 80.168869,0z"/>
   <path id="svg_6" d="m191.143616,249.344315l17.859329,-22.914658c0,0 7.937592,0 10.715698,0c15.478241,0 18.256409,-6.374741 25.20166,-14.472366c14.684525,-16.884399 30.956253,-37.90387 37.901657,-47.379852c1.388947,-1.722916 9.32666,-13.266312 26.789124,-13.266312c14.089081,0 121.04715,0 121.04715,0l-18.653381,23.948318l-23.018738,0l-58.340698,74.084869l-40.481262,0l57.745392,-74.084869l-15.081299,0c-12.501526,0 -17.065552,-2.067459 -26.392242,10.165161c-10.318878,13.438629 -27.979706,36.870132 -38.100037,48.758118c-5.556274,6.547058 -13.493729,15.161591 -32.742264,15.161591c-18.653168,0 -44.450089,0 -44.450089,0z"/>
   <polygon id="svg_7" points="439.78631591796875,151.48338674642855 364.5783996582031,249.3443189703812 405.05963134765625,249.3443189703812 462.80511474609375,175.08719653823118 493.7613220214844,175.08719653823118 437.80181884765625,249.3443189703812 478.0847473144531,249.3443189703812 532.2583618164062,175.25944587136746 562.0238647460938,175.25944587136746 580.8755493164062,151.48338674642855 "/>
  </g>
 </g>
</svg>