<?xml version="1.0" encoding="utf-8"?>
<!-- Generator: Adobe Illustrator 21.0.0, SVG Export Plug-In . SVG Version: 6.00 Build 0)  -->
<svg version="1.1" id="Layer_1" xmlns="http://www.w3.org/2000/svg" xmlns:xlink="http://www.w3.org/1999/xlink" x="0px" y="0px"
	 viewBox="0 0 250 250" style="enable-background:new 0 0 250 250;" xml:space="preserve">
<style type="text/css">
	.st0{fill:none;stroke:#000000;stroke-width:2;stroke-linecap:round;stroke-linejoin:round;stroke-miterlimit:10;}
</style>
<polyline class="st0" points="131.1,124.3 131.1,129.4 131.1,134.4 127.1,134.4 123.1,134.4 119,134.4 115,134.4 115,129.4 
	115,124.3 115,119.3 115,114.3 119,114.3 123.1,114.3 "/>
<g>
	<path d="M132.9,115.7l1.4-1.4c0.4-0.4,0.3-1.1-0.1-1.5l0,0c-0.5-0.5-1.1-0.5-1.5-0.1l-1.4,1.4L132.9,115.7z"/>
	<polygon points="130.6,114.7 125.9,119.4 125.2,121.7 127.5,121.1 132.2,116.4 	"/>
</g>
</svg>
