<?xml version="1.0" encoding="utf-8"?>
<!-- Generator: Adobe Illustrator 19.2.1, SVG Export Plug-In . SVG Version: 6.00 Build 0)  -->
<svg version="1.1" id="Layer_1" xmlns="http://www.w3.org/2000/svg" xmlns:xlink="http://www.w3.org/1999/xlink" x="0px" y="0px"
	 viewBox="0 0 250 250" style="enable-background:new 0 0 250 250;" xml:space="preserve">
<style type="text/css">
	.st0{fill:none;stroke:#000000;stroke-width:2;stroke-linejoin:round;stroke-miterlimit:10;}
	.st1{stroke:#000000;stroke-linejoin:round;stroke-miterlimit:10;}
</style>
<circle cx="127.5" cy="120.1" r="1.5"/>
<g>
	<polygon class="st0" points="134.5,130.8 131.7,130.8 128.9,130.8 126,130.8 123.2,130.8 120.4,130.8 117.5,130.8 114.7,130.8 
		111.9,130.8 111.9,128.9 111.9,127 111.9,125 111.9,123.1 111.9,121.2 111.9,119.2 111.9,117.3 111.9,115.4 114.7,115.4 
		117.5,115.4 120.4,115.4 123.2,115.4 126,115.4 128.9,115.4 131.7,115.4 134.5,115.4 134.5,117.3 134.5,119.2 134.5,121.2 
		134.5,123.1 134.5,125 134.5,127 134.5,128.9 	"/>
	<polyline class="st0" points="135,118.6 137.8,118.6 137.8,120.6 137.8,122.5 137.8,124.4 137.8,126.4 137.8,128.3 137.8,130.2 
		137.8,132.2 137.8,134.1 135,134.1 132.1,134.1 129.3,134.1 126.5,134.1 123.7,134.1 120.8,134.1 118,134.1 115.2,134.1 
		115.2,132.2 115.2,130.2 	"/>
</g>
<g>
	<polygon class="st1" points="121.2,127.5 117,127.5 119.1,124.4 121.2,121 123.2,124.2 125.3,127.5 	"/>
	<polygon class="st1" points="126.2,127.5 123.6,127.5 124.9,125.4 126.2,123.3 127.4,125.4 128.7,127.5 	"/>
</g>
</svg>
