<?xml version="1.0" encoding="utf-8"?>
<!-- Generator: Adobe Illustrator 21.0.2, SVG Export Plug-In . SVG Version: 6.00 Build 0)  -->
<svg version="1.1" id="Layer_1" xmlns="http://www.w3.org/2000/svg" xmlns:xlink="http://www.w3.org/1999/xlink" x="0px" y="0px"
	 viewBox="0 0 27.9 20.7" style="enable-background:new 0 0 27.9 20.7;" xml:space="preserve">
<style type="text/css">
	.st0{fill:#FFFFFF;stroke:#FFFFFF;stroke-miterlimit:10;}
	.st1{fill:none;stroke:#FFFFFF;stroke-width:2;stroke-linejoin:round;stroke-miterlimit:10;}
	.st2{fill:#FFFFFF;stroke:#FFFFFF;stroke-linejoin:round;stroke-miterlimit:10;}
</style>
<circle class="st0" cx="16.6" cy="5.7" r="1.5"/>
<g>
	<polygon class="st1" points="23.6,16.4 20.8,16.4 18,16.4 15.1,16.4 12.3,16.4 9.5,16.4 6.6,16.4 3.8,16.4 1,16.4 1,14.5 1,12.6 
		1,10.6 1,8.7 1,6.8 1,4.8 1,2.9 1,1 3.8,1 6.6,1 9.5,1 12.3,1 15.1,1 18,1 20.8,1 23.6,1 23.6,2.9 23.6,4.8 23.6,6.8 23.6,8.7 
		23.6,10.6 23.6,12.6 23.6,14.5 	"/>
	<polyline class="st1" points="24.1,4.2 26.9,4.2 26.9,6.2 26.9,8.1 26.9,10 26.9,12 26.9,13.9 26.9,15.8 26.9,17.8 26.9,19.7 
		24.1,19.7 21.2,19.7 18.4,19.7 15.6,19.7 12.8,19.7 9.9,19.7 7.1,19.7 4.3,19.7 4.3,17.8 4.3,15.8 	"/>
</g>
<g>
	<polygon class="st2" points="10.3,13.1 6.1,13.1 8.2,10 10.3,6.6 12.3,9.8 14.4,13.1 	"/>
	<polygon class="st2" points="15.3,13.1 12.7,13.1 14,11 15.3,8.9 16.5,11 17.8,13.1 	"/>
</g>
</svg>
