<?xml version="1.0" encoding="utf-8"?>
<!-- Generator: Adobe Illustrator 19.2.1, SVG Export Plug-In . SVG Version: 6.00 Build 0)  -->
<svg version="1.1" id="Layer_1" xmlns="http://www.w3.org/2000/svg" xmlns:xlink="http://www.w3.org/1999/xlink" x="0px" y="0px"
	 viewBox="0 0 250 250" style="enable-background:new 0 0 250 250;" xml:space="preserve">
<style type="text/css">
	.st0{fill:none;stroke:#000000;stroke-width:2;stroke-linejoin:round;stroke-miterlimit:10;}
</style>
<g>
	<circle cx="118.9" cy="122.1" r="1.5"/>
	<circle cx="124.6" cy="122.1" r="1.5"/>
	<circle cx="130.3" cy="122.1" r="1.5"/>
</g>
<polygon class="st0" points="135.9,129.8 133.1,129.8 130.2,129.8 127.4,129.8 124.6,133.8 121.8,129.8 118.9,129.8 116.1,129.8 
	113.3,129.8 113.3,127.9 113.3,126 113.3,124 113.3,122.1 113.3,120.2 113.3,118.2 113.3,116.3 113.3,114.4 116.1,114.4 
	118.9,114.4 121.8,114.4 124.6,114.4 127.4,114.4 130.2,114.4 133.1,114.4 135.9,114.4 135.9,116.3 135.9,118.2 135.9,120.2 
	135.9,122.1 135.9,124 135.9,126 135.9,127.9 "/>
</svg>
