<?xml version="1.0" encoding="utf-8"?>
<!-- Generator: Adobe Illustrator 21.0.2, SVG Export Plug-In . SVG Version: 6.00 Build 0)  -->
<svg version="1.1" id="Layer_1" xmlns="http://www.w3.org/2000/svg" xmlns:xlink="http://www.w3.org/1999/xlink" x="0px" y="0px"
	 viewBox="0 0 24.6 21.4" style="enable-background:new 0 0 24.6 21.4;" xml:space="preserve">
<style type="text/css">
	.st0{fill:#FFFFFF;stroke:#FFFFFF;stroke-miterlimit:10;}
	.st1{fill:none;stroke:#FFFFFF;stroke-width:2;stroke-linejoin:round;stroke-miterlimit:10;}
</style>
<g>
	<circle class="st0" cx="6.6" cy="8.7" r="1.5"/>
	<circle class="st0" cx="12.3" cy="8.7" r="1.5"/>
	<circle class="st0" cx="18" cy="8.7" r="1.5"/>
</g>
<polygon class="st1" points="23.6,16.4 20.8,16.4 17.9,16.4 15.1,16.4 12.3,20.4 9.5,16.4 6.6,16.4 3.8,16.4 1,16.4 1,14.5 1,12.6 
	1,10.6 1,8.7 1,6.8 1,4.8 1,2.9 1,1 3.8,1 6.6,1 9.5,1 12.3,1 15.1,1 17.9,1 20.8,1 23.6,1 23.6,2.9 23.6,4.8 23.6,6.8 23.6,8.7 
	23.6,10.6 23.6,12.6 23.6,14.5 "/>
</svg>
