<?xml version="1.0" encoding="utf-8"?>
<!-- Generator: Adobe Illustrator 21.0.0, SVG Export Plug-In . SVG Version: 6.00 Build 0)  -->
<svg version="1.1" id="Layer_1" xmlns="http://www.w3.org/2000/svg" xmlns:xlink="http://www.w3.org/1999/xlink" x="0px" y="0px"
	 viewBox="0 0 250 250" style="enable-background:new 0 0 250 250;" xml:space="preserve">
<style type="text/css">
	.st0{fill:none;stroke:#000000;stroke-width:2;stroke-linejoin:round;stroke-miterlimit:10;}
</style>
<g>
	<polygon class="st0" points="123.5,112.8 133.1,118.5 133.1,129.8 123.5,135.4 113.9,129.8 113.9,118.5 	"/>
	<path class="st0" d="M113.9,118.5"/>
	<path class="st0" d="M133.1,118.5"/>
</g>
<g>
	<circle cx="121" cy="120.8" r="1.6"/>
	<g>
		<path d="M123.6,124.4c-0.7-0.5-1.6-0.9-2.5-0.9c-2.4,0-4.3,1.9-4.3,4.3h5.1C122,126.5,122.6,125.3,123.6,124.4z"/>
		<path d="M126.9,124.7c-1.8,0-3.2,1.3-3.4,3.1h1.8h5C130.1,126.1,128.7,124.7,126.9,124.7z"/>
	</g>
	<circle cx="126.9" cy="121.6" r="1.6"/>
</g>
</svg>
