<svg xmlns="http://www.w3.org/2000/svg" xmlns:xlink="http://www.w3.org/1999/xlink" version="1.1" style="" xml:space="preserve" width="19" height="23"><rect id="backgroundrect" width="100%" height="100%" x="0" y="0" fill="none" stroke="none"/>
<style type="text/css">
	.st0{fill:none;stroke:#FFFFFF;stroke-width:2;stroke-linejoin:round;stroke-miterlimit:10;}
	.st1{fill:#FFFFFF;stroke:#FFFFFF;stroke-miterlimit:10;}
</style>


<g class="currentLayer" style=""><title>Layer 1</title><g id="svg_1" class="">
	<polygon class="st0" points="9.599998474121094,0 19.20000457763672,5.6999969482421875 19.20000457763672,17 9.599998474121094,22.599990844726562 0,17 0,5.6999969482421875 " id="svg_2"/>
	<path class="st0" d="M-0.0000015258789005656581,5.6999969482421875 " id="svg_3"/>
	<path class="st0" d="M19.199998474121088,5.6999969482421875 " id="svg_4"/>
</g><g id="svg_5" class="">
	<circle class="st1" cx="7.099998474121094" cy="8" r="1.600000023841858" id="svg_6"/>
	<g id="svg_7">
		<path class="st1" d="M9.699998474121088,11.599996948242193 c-0.7000000000000001,-0.5 -1.6,-0.9 -2.5,-0.9 c-2.4,0 -4.3,1.9 -4.3,4.3 h5.1 C8.099998474121094,13.699996948242188 8.699998474121088,12.499996948242185 9.699998474121088,11.599996948242193 z" id="svg_8"/>
		<path class="st1" d="M12.9999984741211,11.89999694824219 c-1.8,0 -3.2,1.3 -3.4,3.1 h1.8 h5 C16.199998474121088,13.299996948242182 14.799998474121082,11.89999694824219 12.9999984741211,11.89999694824219 z" id="svg_9"/>
	</g>
	<circle class="st1" cx="13" cy="8.799995422363281" r="1.600000023841858" id="svg_10"/>
</g></g></svg>