<?xml version="1.0" encoding="utf-8"?>
<!-- Generator: Adobe Illustrator 21.0.0, SVG Export Plug-In . SVG Version: 6.00 Build 0)  -->
<svg version="1.1" id="Layer_1" xmlns="http://www.w3.org/2000/svg" xmlns:xlink="http://www.w3.org/1999/xlink" x="0px" y="0px"
	 viewBox="0 0 250 250" style="enable-background:new 0 0 250 250;" xml:space="preserve">
<path d="M146.1,127.9l6.1-4.4l-6.1-4.4l3.9-6.4l-7.3-1.8l1.2-7.4l-7.4,1.2l-1.8-7.3l-6.4,3.9l-4.4-6.1l-4.4,6.1l-6.4-3.9l-1.8,7.3
	l-7.4-1.2l1.2,7.4l-7.3,1.8l3.9,6.4l-6.1,4.4l6.1,4.4l-3.9,6.4l7.3,1.8l-1.2,7.4l7.4-1.2l1.8,7.3l6.4-3.9l4.4,6.1l4.4-6.1l6.4,3.9
	l1.8-7.3l7.4,1.2l-1.2-7.4l7.3-1.8L146.1,127.9z M113.5,127.7l-2-4.2l-1.1,4.2h-2.8l2.3-8.4h2.6l1.9,4l1.1-4h2.8l-2.3,8.4H113.5z
	 M125.7,121.6h-4.4l-0.2,0.9h4.1l-0.5,2h-4.1l-0.3,0.9h4.5l-0.6,2.3h-7.2l2.3-8.4h7.2L125.7,121.6z M135,127.8h-2.4l-0.4-4.2
	l-2.6,4.2h-2.4l-0.5-8.5h2.9l0.1,4l2.4-4.1h2.4l0.3,4.1l2.3-4h3L135,127.8z"/>
</svg>
