<svg xmlns="http://www.w3.org/2000/svg" xmlns:xlink="http://www.w3.org/1999/xlink" version="1.1" style="enable-background:new 0 0 250 250;" xml:space="preserve" width="57" height="57"><rect id="backgroundrect" width="100%" height="100%" x="0" y="0" fill="none" stroke="none"/>

<g class="currentLayer" style=""><title>Layer 1</title><path d="M50.50000915527343,32.70001068115235 l6.1,-4.4 l-6.1,-4.4 l3.9,-6.4 l-7.3,-1.8 l1.2,-7.4 l-7.4,1.2 l-1.8,-7.3 l-6.4,3.9 l-4.4,-6.1 l-4.4,6.1 l-6.4,-3.9 l-1.8,7.3 l-7.4,-1.2 l1.2,7.4 l-7.3,1.8 l3.9,6.4 l-6.1,4.4 l6.1,4.4 l-3.9,6.4 l7.3,1.8 l-1.2,7.4 l7.4,-1.2 l1.8,7.3 l6.4,-3.9 l4.4,6.1 l4.4,-6.1 l6.4,3.9 l1.8,-7.3 l7.4,1.2 l-1.2,-7.4 l7.3,-1.8 L50.50000915527343,32.70001068115235 zM17.900009155273438,32.50001068115235 l-2,-4.2 l-1.1,4.2 h-2.8 l2.3,-8.4 h2.6 l1.9,4 l1.1,-4 h2.8 l-2.3,8.4 H17.900009155273438 zM30.10000915527344,26.400010681152338 h-4.4 l-0.2,0.9 h4.1 l-0.5,2 h-4.1 l-0.30000000000000004,0.9 h4.5 l-0.6000000000000001,2.3 h-7.2 l2.3,-8.4 h7.2 L30.10000915527344,26.400010681152338 zM39.40000915527344,32.60001068115234 h-2.4 l-0.4,-4.2 l-2.6,4.2 h-2.4 l-0.5,-8.5 h2.9 l0.1,4 l2.4,-4.1 h2.4 l0.30000000000000004,4.1 l2.3,-4 h3 L39.40000915527344,32.60001068115234 z" id="svg_1" class=""/></g></svg>