<svg width="57" height="57" viewBox="0 0 57 57" fill="none" xmlns="http://www.w3.org/2000/svg">
<rect x="11" y="14" width="35" height="29" fill="white"/>
<path d="M50.5 32.7L56.6 28.3L50.5 23.9L54.4 17.5L47.1 15.7L48.3 8.3L40.9 9.5L39.1 2.2L32.7 6.10001L28.3 0L23.9 6.10001L17.5 2.2L15.7 9.5L8.3 8.3L9.5 15.7L2.2 17.5L6.1 23.9L0 28.3L6.1 32.7L2.2 39.1L9.5 40.9L8.3 48.3L15.7 47.1L17.5 54.4L23.9 50.5L28.3 56.6L32.7 50.5L39.1 54.4L40.9 47.1L48.3 48.3L47.1 40.9L54.4 39.1L50.5 32.7ZM17.9 32.5L15.9 28.3L14.8 32.5H12L14.3 24.1H16.9L18.8 28.1L19.9 24.1H22.7L20.4 32.5H17.9ZM30.1 26.4H25.7L25.5 27.3H29.6L29.1 29.3H25L24.7 30.2H29.2L28.6 32.5H21.4L23.7 24.1H30.9L30.1 26.4ZM39.4 32.6H37L36.6 28.4L34 32.6H31.6L31.1 24.1H34L34.1 28.1L36.5 24H38.9L39.2 28.1L41.5 24.1H44.5L39.4 32.6Z" fill="black"/>
</svg>
