<?xml version="1.0" encoding="utf-8"?>
<!-- Generator: Adobe Illustrator 22.1.0, SVG Export Plug-In . SVG Version: 6.00 Build 0)  -->
<svg version="1.1" id="Layer_1" xmlns="http://www.w3.org/2000/svg" xmlns:xlink="http://www.w3.org/1999/xlink" x="0px" y="0px"
	 viewBox="0 0 250 250" style="enable-background:new 0 0 250 250;" xml:space="preserve">
<path d="M153.8,125c0-0.2-0.1-0.3-0.2-0.4l-5.7-4.2l3.7-6c0.1-0.1,0.1-0.3,0-0.5s-0.2-0.3-0.3-0.3l-6.9-1.6l1.1-7
	c0-0.2,0-0.3-0.1-0.4c-0.1-0.1-0.3-0.2-0.4-0.1l-7,1.1l-1.6-6.9c0-0.2-0.1-0.3-0.3-0.3c-0.1-0.1-0.3,0-0.5,0l-6,3.7l-4.2-5.7
	c-0.2-0.3-0.6-0.3-0.8,0l-4.2,5.7l-6-3.7c-0.1-0.1-0.3-0.1-0.5,0c-0.1,0.1-0.3,0.2-0.3,0.3l-1.6,6.9l-7-1.1c-0.2,0-0.3,0-0.4,0.1
	c-0.1,0.1-0.2,0.3-0.1,0.4l1.1,7l-6.9,1.6c-0.2,0-0.3,0.1-0.3,0.3s0,0.3,0,0.5l3.7,6l-5.7,4.2c-0.1,0.1-0.2,0.2-0.2,0.4
	s0.1,0.3,0.2,0.4l5.7,4.2l-3.7,6c-0.1,0.1-0.1,0.3,0,0.5s0.2,0.3,0.3,0.3l6.9,1.6l-1.1,7c0,0.2,0,0.3,0.1,0.4
	c0.1,0.1,0.3,0.2,0.4,0.1l7-1.1l1.6,6.9c0,0.2,0.1,0.3,0.3,0.3c0.1,0.1,0.3,0,0.5,0l6-3.7l4.2,5.7c0.1,0.1,0.2,0.2,0.4,0.2
	s0.3-0.1,0.4-0.2l4.2-5.7l6,3.7c0.1,0.1,0.3,0.1,0.5,0c0.1-0.1,0.3-0.2,0.3-0.3l1.6-6.9l7,1.1c0.2,0,0.3,0,0.4-0.1s0.2-0.3,0.1-0.4
	l-1.1-7l6.9-1.6c0.2,0,0.3-0.1,0.3-0.3s0-0.3,0-0.5l-3.7-6l5.7-4.2C153.8,125.3,153.8,125.2,153.8,125z M123.3,130.9h-2.6l-1.9-4.8
	l-1,4.8H115l2-9.6h2.7l1.8,4.8l1-4.8h2.8L123.3,130.9z M130.7,127.4l-0.7,3.5H127l0.8-3.8l-2.3-5.8h3l1.1,3.1l2.3-3.1h3.5
	L130.7,127.4z"/>
</svg>
