<svg xmlns="http://www.w3.org/2000/svg" xmlns:xlink="http://www.w3.org/1999/xlink" version="1.1" style="enable-background:new 0 0 250 250;" xml:space="preserve" width="58" height="58"><rect id="backgroundrect" width="100%" height="100%" x="0" y="0" fill="none" stroke="none"/>

<g class="currentLayer" style=""><title>Layer 1</title><path d="M57.59999542236329,28.82501220703125 c0,-0.2 -0.1,-0.30000000000000004 -0.2,-0.4 l-5.7,-4.2 l3.7,-6 c0.1,-0.1 0.1,-0.30000000000000004 0,-0.5 s-0.2,-0.30000000000000004 -0.30000000000000004,-0.30000000000000004 l-6.9,-1.6 l1.1,-7 c0,-0.2 0,-0.30000000000000004 -0.1,-0.4 c-0.1,-0.1 -0.30000000000000004,-0.2 -0.4,-0.1 l-7,1.1 l-1.6,-6.9 c0,-0.2 -0.1,-0.30000000000000004 -0.30000000000000004,-0.30000000000000004 c-0.1,-0.1 -0.30000000000000004,0 -0.5,0 l-6,3.7 l-4.2,-5.7 c-0.2,-0.30000000000000004 -0.6000000000000001,-0.30000000000000004 -0.8,0 l-4.2,5.7 l-6,-3.7 c-0.1,-0.1 -0.30000000000000004,-0.1 -0.5,0 c-0.1,0.1 -0.30000000000000004,0.2 -0.30000000000000004,0.30000000000000004 l-1.6,6.9 l-7,-1.1 c-0.2,0 -0.30000000000000004,0 -0.4,0.1 c-0.1,0.1 -0.2,0.30000000000000004 -0.1,0.4 l1.1,7 l-6.9,1.6 c-0.2,0 -0.30000000000000004,0.1 -0.30000000000000004,0.30000000000000004 s0,0.30000000000000004 0,0.5 l3.7,6 l-5.7,4.2 c-0.1,0.1 -0.2,0.2 -0.2,0.4 s0.1,0.30000000000000004 0.2,0.4 l5.7,4.2 l-3.7,6 c-0.1,0.1 -0.1,0.30000000000000004 0,0.5 s0.2,0.30000000000000004 0.30000000000000004,0.30000000000000004 l6.9,1.6 l-1.1,7 c0,0.2 0,0.30000000000000004 0.1,0.4 c0.1,0.1 0.30000000000000004,0.2 0.4,0.1 l7,-1.1 l1.6,6.9 c0,0.2 0.1,0.30000000000000004 0.30000000000000004,0.30000000000000004 c0.1,0.1 0.30000000000000004,0 0.5,0 l6,-3.7 l4.2,5.7 c0.1,0.1 0.2,0.2 0.4,0.2 s0.30000000000000004,-0.1 0.4,-0.2 l4.2,-5.7 l6,3.7 c0.1,0.1 0.30000000000000004,0.1 0.5,0 c0.1,-0.1 0.30000000000000004,-0.2 0.30000000000000004,-0.30000000000000004 l1.6,-6.9 l7,1.1 c0.2,0 0.30000000000000004,0 0.4,-0.1 s0.2,-0.30000000000000004 0.1,-0.4 l-1.1,-7 l6.9,-1.6 c0.2,0 0.30000000000000004,-0.1 0.30000000000000004,-0.30000000000000004 s0,-0.30000000000000004 0,-0.5 l-3.7,-6 l5.7,-4.2 C57.59999542236329,29.125012207031247 57.59999542236329,29.025012207031253 57.59999542236329,28.82501220703125 zM27.09999542236328,34.725012207031256 h-2.6 l-1.9,-4.8 l-1,4.8 H18.79999542236328 l2,-9.6 h2.7 l1.8,4.8 l1,-4.8 h2.8 L27.09999542236328,34.725012207031256 zM34.49999542236327,31.225012207031256 l-0.7000000000000001,3.5 H30.79999542236328 l0.8,-3.8 l-2.3,-5.8 h3 l1.1,3.1 l2.3,-3.1 h3.5 L34.49999542236327,31.225012207031256 z" id="svg_1" class=""/></g></svg>