<?xml version="1.0" encoding="utf-8"?>
<!-- Generator: Adobe Illustrator 19.2.1, SVG Export Plug-In . SVG Version: 6.00 Build 0)  -->
<svg version="1.1" id="Layer_1" xmlns="http://www.w3.org/2000/svg" xmlns:xlink="http://www.w3.org/1999/xlink" x="0px" y="0px"
	 viewBox="0 0 250 250" style="enable-background:new 0 0 250 250;" xml:space="preserve">
<style type="text/css">
	.st0{fill:#17181B;}
</style>
<path class="st0" d="M125.5,129.6c-0.3-0.2-0.7-0.2-1,0l-5.2,3.6c-0.3,0.2-0.6-0.1-0.4-0.4l2.1-5.7c0.2-0.4,0-0.9-0.4-1.1l-4.7-3.1
	c-0.2-0.2-0.1-0.6,0.2-0.6l5.9-0.1c0.4,0,0.7-0.3,0.9-0.6l1.8-5.4c0.1-0.3,0.5-0.3,0.6,0l1.8,5.4c0.1,0.4,0.5,0.6,0.9,0.6l5.9,0.1
	c0.3,0,0.4,0.4,0.2,0.6l-4.7,3.1c-0.4,0.2-0.5,0.7-0.4,1.1l2.1,5.7c0.1,0.3-0.2,0.5-0.4,0.4L125.5,129.6z"/>
</svg>
