<?xml version="1.0" encoding="utf-8"?>
<!-- Generator: Adobe Illustrator 21.0.2, SVG Export Plug-In . SVG Version: 6.00 Build 0)  -->
<svg version="1.1" id="Layer_1" xmlns="http://www.w3.org/2000/svg" xmlns:xlink="http://www.w3.org/1999/xlink" x="0px" y="0px"
	 viewBox="0 0 24.7 17.4" style="enable-background:new 0 0 24.7 17.4;" xml:space="preserve">
<style type="text/css">
	.st0{fill:#FFFFFF;}
	.st1{fill:none;stroke:#FFFFFF;stroke-width:2;stroke-linejoin:round;stroke-miterlimit:10;}
</style>
<path class="st0" d="M17.2,8.2c0.4,0.2,0.4,0.7,0,0.9l-3.5,1.7L10,12.6c-0.3,0.2-0.7-0.1-0.7-0.4V8.7V5.2c0-0.4,0.4-0.6,0.7-0.4
	l3.7,1.8L17.2,8.2z"/>
<polygon class="st1" points="23.7,16.4 20.8,16.4 18,16.4 15.2,16.4 12.3,16.4 9.5,16.4 6.7,16.4 3.9,16.4 1,16.4 1,14.5 1,12.6 
	1,10.6 1,8.7 1,6.8 1,4.8 1,2.9 1,1 3.9,1 6.7,1 9.5,1 12.3,1 15.2,1 18,1 20.8,1 23.7,1 23.7,2.9 23.7,4.8 23.7,6.8 23.7,8.7 
	23.7,10.6 23.7,12.6 23.7,14.5 "/>
</svg>
