<?xml version="1.0" encoding="utf-8"?>
<!-- Generator: Adobe Illustrator 19.2.1, SVG Export Plug-In . SVG Version: 6.00 Build 0)  -->
<svg version="1.1" id="Layer_1" xmlns="http://www.w3.org/2000/svg" xmlns:xlink="http://www.w3.org/1999/xlink" x="0px" y="0px"
	 viewBox="0 0 250 250" style="enable-background:new 0 0 250 250;" xml:space="preserve">
<style type="text/css">
	.st0{fill:none;stroke:#000000;stroke-width:2;stroke-linejoin:round;stroke-miterlimit:10;}
</style>
<path d="M129.4,123.6c0.4,0.2,0.4,0.7,0,0.9l-3.5,1.7l-3.7,1.8c-0.3,0.2-0.7-0.1-0.7-0.4v-3.5v-3.5c0-0.4,0.4-0.6,0.7-0.4l3.7,1.8
	L129.4,123.6z"/>
<polygon class="st0" points="135.9,131.8 133,131.8 130.2,131.8 127.4,131.8 124.5,131.8 121.7,131.8 118.9,131.8 116.1,131.8 
	113.2,131.8 113.2,129.9 113.2,128 113.2,126 113.2,124.1 113.2,122.2 113.2,120.2 113.2,118.3 113.2,116.4 116.1,116.4 
	118.9,116.4 121.7,116.4 124.5,116.4 127.4,116.4 130.2,116.4 133,116.4 135.9,116.4 135.9,118.3 135.9,120.2 135.9,122.2 
	135.9,124.1 135.9,126 135.9,128 135.9,129.9 "/>
</svg>
